<?xml version="1.0" encoding="UTF-8"?>
<svg width="24px" height="24px" viewBox="0 0 24 24" version="1.1" xmlns="http://www.w3.org/2000/svg" xmlns:xlink="http://www.w3.org/1999/xlink">
    <!-- Generator: Sketch 57.1 (83088) - https://sketch.com -->
    <title>S-outline</title>
    <desc>Created with Sketch.</desc>
    <g id="S-outline" stroke="none" stroke-width="1" fill="none" fill-rule="evenodd">
        <g id="Group" transform="translate(4.000000, 2.000000)" fill="#000000" fill-rule="nonzero">
            <path d="M1.00268996,16.0845522 C0.743400688,15.7018019 1.12532769,15.2108495 1.56009617,15.3680282 L11.9478237,19.1234272 C12.4505392,19.3051702 12.3201164,20.0495416 11.7855572,20.0495416 L3.94187612,20.0495416 C3.78355246,20.0495416 3.63553347,19.9710292 3.54673635,19.8399512 L1.00268996,16.0845522 Z M2.6165967,16.7649865 L4.19503157,19.0949961 L9.06158581,19.0949961 L2.6165967,16.7649865 Z" id="Path-5"></path>
            <path d="M1.23556328,16.2657116 C0.73284772,16.0839685 0.863270579,15.3395972 1.39782973,15.3395972 L6.29075219,15.3395972 C6.38685248,15.3395972 6.48071447,15.3686079 6.56005502,15.4228328 L12.0548601,19.1782317 C12.5177443,19.4945878 12.1505552,20.2117285 11.6232908,20.0211105 L1.23556328,16.2657116 Z M4.12180114,16.2941426 L8.41333273,17.8456286 L6.14323762,16.2941426 L4.12180114,16.2941426 Z" id="Path-14"></path>
            <path d="M12.2489424,19.4579733 L10.3857539,11.9041003 C10.2956006,11.5385945 9.83754793,11.4164683 9.5773941,11.6885751 L5.94577754,15.4870491 C5.74219962,15.6999806 5.77823468,16.0446831 6.02144936,16.210907 L11.5162544,19.9663059 C11.8780361,20.213564 12.3538818,19.8834263 12.2489424,19.4579733 Z M7.02438405,15.7401763 L9.66701899,12.9761234 L11.0228138,18.4728845 L7.02438405,15.7401763 Z" id="Path-15"></path>
            <path d="M12.1729032,19.8511099 L16.0937686,14.4045263 C16.278591,14.1477842 16.1670363,13.785538 15.8698009,13.677247 L10.0857471,11.5699577 C9.72693026,11.4392309 9.3675303,11.7619148 9.45898361,12.1326914 L11.3221721,19.6865644 C11.4196276,20.0816755 11.9351458,20.1813853 12.1729032,19.8511099 Z M10.6001421,12.7732886 L14.9508427,14.3583681 L12.0016117,18.4552274 L10.6001421,12.7732886 Z" id="Path-16"></path>
            <path d="M15.937626,13.7081517 L0.711594408,5.27694591 C0.275690107,5.03556989 -0.19199534,5.53968649 0.0813398903,5.95629517 L2.59414934,9.78623771 C2.65074346,9.87249663 2.73376424,9.93809528 2.83077335,9.97320553 L15.5439955,14.5744688 C16.0967515,14.7745263 16.451892,13.9929194 15.937626,13.7081517 Z M3.3050689,9.1297253 L1.93911941,7.04778947 L10.215907,11.6309468 L3.3050689,9.1297253 Z" id="Path-17"></path>
            <path d="M16.0942279,13.8474832 L12.1733625,8.38191353 C12.1085466,8.29156205 12.0142172,8.22667764 11.9066606,8.19846278 L0.601494357,5.2328267 C0.0582330129,5.09031527 -0.242155435,5.8399385 0.24918753,6.11201292 L15.4752192,14.5432187 C15.9205499,14.7898145 16.3909511,14.2611066 16.0942279,13.8474832 Z M4.04574091,7.12318371 L11.4980379,9.07811301 L14.0826485,12.6809833 L4.04574091,7.12318371 Z" id="Path-18"></path>
            <path d="M0.358653159,6.15596523 C0.0390478463,6.07165484 -0.100163249,5.69584139 0.0873904707,5.42366607 L3.6797074,0.210546405 C3.88598296,-0.0887977687 4.33783426,-0.0568352118 4.4999173,0.268565504 L8.03282164,7.36128535 C8.21576803,7.7285717 7.88062938,8.14022752 7.48387444,8.03556541 L0.358653159,6.15596523 Z M1.25866759,5.40618547 L6.70869333,6.84387687 L4.00640257,1.41871122 L1.25866759,5.40618547 Z" id="Path-19"></path>
            <path d="M3.64549851,0.694153984 L7.17840285,7.78687383 C7.33985727,8.11101252 7.78932749,8.1443176 7.99679272,7.84751532 L9.42933518,5.79810263 C9.56114596,5.60953253 9.53966702,5.35376513 9.37825255,5.18981962 L4.41280575,0.146512449 C4.03174714,-0.240521327 3.40333714,0.207986643 3.64549851,0.694153984 Z M8.41952827,5.57661816 L7.67466056,6.64223497 L5.83768439,2.95428985 L8.41952827,5.57661816 Z" id="Path-20"></path>
            <path d="M3.73261006,0.816207039 C3.43554726,0.514486173 3.64929111,0.00408701675 4.0727079,0.00408701675 L11.7855572,0.00408701675 C12.147723,0.00408701675 12.3779289,0.39164283 12.2046748,0.709679099 L9.45727227,5.75298627 C9.30405245,6.03424632 8.9227651,6.08774597 8.69805686,5.85951421 L3.73261006,0.816207039 Z M5.21238798,0.958632471 L8.92683871,4.7313274 L10.9820599,0.958632471 L5.21238798,0.958632471 Z" id="Path-21"></path>
            <path d="M11.3664397,0.253040389 C11.5309687,-0.0489795324 11.9512618,-0.0831020214 12.1623553,0.188422097 L16.0832207,5.23172926 C16.3269596,5.54524429 16.1035376,6.00193964 15.7064226,6.00193964 L9.03815471,6.00193964 C8.67598893,6.00193964 8.44578305,5.61438383 8.61903715,5.29634756 L11.3664397,0.253040389 Z M9.84165208,5.04739418 L14.7308327,5.04739418 L11.8560503,1.34963639 L9.84165208,5.04739418 Z" id="Path-22"></path>
        </g>
    </g>
</svg>