<?xml version="1.0" standalone="no"?>
<!DOCTYPE svg PUBLIC "-//W3C//DTD SVG 20010904//EN"
 "http://www.w3.org/TR/2001/REC-SVG-20010904/DTD/svg10.dtd">
<svg version="1.0" xmlns="http://www.w3.org/2000/svg"
 width="700.000000pt" height="700.000000pt" viewBox="0 0 700.000000 700.000000"
 preserveAspectRatio="xMidYMid meet">
<metadata>
Created by potrace 1.11, written by Peter Selinger 2001-2013
</metadata>
<g transform="translate(0.000000,700.000000) scale(0.100000,-0.100000)"
fill="#000000" stroke="none">
<path d="M0 3500 l0 -3500 3500 0 3500 0 0 3500 0 3500 -3500 0 -3500 0 0
-3500z m6220 2045 l0 -485 -2138 -2 -2137 -3 -3 -532 -2 -533 2042 -2 2043 -3
3 -1508 2 -1507 -1750 0 -1750 0 0 485 0 485 1263 2 1262 3 3 532 2 533 -2042
2 -2043 3 -3 1508 -2 1507 2625 0 2625 0 0 -485z m-4280 -4085 l0 -480 -480 0
-480 0 0 480 0 480 480 0 480 0 0 -480z"/>
</g>
</svg>
