<?xml version="1.0" encoding="UTF-8"?>
<svg width="24px" height="24px" viewBox="0 0 24 24" version="1.1" xmlns="http://www.w3.org/2000/svg" xmlns:xlink="http://www.w3.org/1999/xlink">
    <!-- Generator: Sketch 57.1 (83088) - https://sketch.com -->
    <title>S-day</title>
    <desc>Created with Sketch.</desc>
    <g id="S-day" stroke="none" stroke-width="1" fill="none" fill-rule="evenodd">
        <g id="Group-Copy" transform="translate(4.000000, 2.000000)">
            <polygon id="Path-5" fill="#4263EB" points="0.961126317 16.0657725 11.8435075 20 3.62631777 20"></polygon>
            <polygon id="Path-14" fill="#3B5BDB" points="0.961126317 16.0657725 6.08704509 16.0657725 11.8435075 20"></polygon>
            <polygon id="Path-15" fill="#4263EB" points="11.8435075 20 9.89159577 12.0864188 6.08704509 16.0657725"></polygon>
            <polygon id="Path-16" fill="#4C6EF5" points="11.8435075 20 15.9510808 14.2940552 9.89159577 12.0864188"></polygon>
            <polygon id="Path-17" fill="#5C7CFA" points="15.9510808 14.2940552 1.42108547e-14 5.46136346 2.63246704 9.47368421"></polygon>
            <polygon id="Path-18" fill="#748FFC" points="15.9510808 14.2940552 11.8435075 8.56822031 -1.5093602e-14 5.46136346"></polygon>
            <polygon id="Path-19" fill="#5C7CFA" points="-1.42108547e-14 5.46136346 3.76337965 7.10542736e-14 7.46451753 7.43046841"></polygon>
            <polygon id="Path-20" fill="#4C6EF5" points="3.76337965 7.10542736e-14 7.46451753 7.43046841 8.9652763 5.28346465"></polygon>
            <polygon id="Path-21" fill="#4263EB" points="3.76337965 -1.42108547e-14 11.8435075 -1.42108547e-14 8.9652763 5.28346465"></polygon>
            <polygon id="Path-22" fill="#4C6EF5" points="11.8435075 -1.42108547e-14 15.9510808 5.28346465 8.9652763 5.28346465"></polygon>
        </g>
    </g>
</svg>